<svg xmlns="http://www.w3.org/2000/svg" viewBox="0 0 24 24" fill="white">
<path d="M1.32 12c-.11 0-.2.09-.22.19l-.34 1.84c-.03.11.06.19.17.19s.2-.08.22-.19l.34-1.84c.03-.11-.06-.19-.17-.19ZM2.45 12c-.11 0-.2.09-.23.19l-.45 2.53c-.03.11.06.19.17.19s.2-.08.23-.19l.45-2.53c.03-.11-.06-.19-.17-.19ZM3.63 11.87c-.11 0-.23.11-.23.23l-.51 3.04c0 .11.11.23.23.23s.23-.11.23-.23l.51-3.04c0-.11-.11-.23-.23-.23ZM4.81 11.4c-.11 0-.2.08-.23.2l-.56 3.94c-.03.11.06.2.17.2h.06c.11 0 .2-.09.23-.2l.56-3.94c.03-.11-.06-.2-.17-.2ZM5.99 10.18c-.11 0-.2.08-.23.2l-.62 5.34c-.03.11.06.2.17.2s.2-.09.23-.2l.62-5.34c.03-.11-.06-.2-.17-.2ZM7.23 9.34c-.11 0-.23.11-.23.23l-.56 6.19c0 .11.11.23.23.23h.06c.11 0 .23-.11.23-.23l.56-6.19c0-.11-.11-.23-.23-.23ZM8.41 8.8c-.11 0-.23.12-.23.23l-.51 6.8c0 .11.11.23.23.23h.05c.12 0 .23-.11.23-.23l.51-6.8c0-.12-.11-.23-.23-.23ZM9.65 8.16c-.18 0-.32.14-.34.3l-.45 7.64c-.01.18.15.34.34.34h.04c.18 0 .34-.15.34-.34l.45-7.64c.01-.17-.15-.3-.34-.3ZM10.83 8.35c-.18 0-.33.15-.33.32v8c0 .18.15.33.33.33s.32-.15.32-.33v-8c0-.17-.15-.32-.32-.32ZM13.41 8.35c-.18 0-.33.15-.33.33v10.67c0 .18.15.33.33.33s.33-.15.33-.33V8.35c0-.18-.15-.33-.33-.33ZM12.12 8.35c-.18 0-.33.15-.33.32v9.34c0 .18.15.33.33.33s.33-.15.33-.33v-9.34c0-.17-.15-.32-.33-.32ZM14.7 8.35c-.18 0-.33.15-.33.33v10.67c0 .18.15.33.33.33s.33-.15.33-.33V8.35c0-.18-.15-.33-.33-.33ZM24 13.66c0-2.26-1.84-4.1-4.1-4.1-.17 0-.33.01-.49.03a3.593 3.593 0 0 0-6.72-1.3l-.23.51.52.19c.14.05.28.1.41.17.11.06.2.14.28.23l.11.13c.48.56.76 1.28.76 2.06v5.82c0 .91.74 1.65 1.65 1.65h5.71c1.43 0 2.6-1.16 2.6-2.6s-1.16-2.6-2.6-2.6c-.19 0-.37.02-.54.06l-.7.16.27-.67c.72-1.78.36-3.8-1.02-5.18.66-.46 1.48-.74 2.37-.74 2.26 0 4.1 1.84 4.1 4.1 0 1.29-.6 2.45-1.55 3.2.03.04.05.08.08.13.91.86 1.47 2.06 1.47 3.4 0 2.54-2.06 4.6-4.6 4.6h-5.91c-1.38 0-2.5-1.12-2.5-2.5V13c-.15-.22-.32-.42-.52-.59-.04-.04-.08-.07-.12-.11-.08-.07-.17-.13-.26-.2l-.12-.08c-.14-.08-.28-.15-.43-.21s-.31-.11-.47-.15c-.11-.03-.23-.05-.35-.07-.19-.03-.39-.04-.59-.04-3.04 0-5.5 2.46-5.5 5.5v2.85c0 .33.27.6.6.6s.6-.27.6-.6v-2.85a4.3 4.3 0 0 1 8.6 0v2.85c0 .33.27.6.6.6h5.71c2.1 0 3.8-1.7 3.8-3.8s-1.7-3.8-3.8-3.8c-.07 0-.14 0-.21.01l-.2.03-.04-.21c-.08-.34-.23-.66-.45-.93ZM17.38 18.66c0 .18-.15.33-.33.33s-.33-.15-.33-.33v-8c0-.18.15-.33.33-.33s.33.15.33.33v8Z"/></svg>
